HIERARCHY
ROOT hip
{
	OFFSET 0.000000 -102.168968 0.000000
	CHANNELS 6 Xposition Yposition Zposition Zrotation Xrotation Yrotation
	JOINT abdomen
	{
		OFFSET 0.000000 6.096001 0.000000
		CHANNELS 3 Zrotation Xrotation Yrotation
		JOINT chest
		{
			OFFSET 0.000000 15.118080 -1.219200
			CHANNELS 3 Zrotation Xrotation Yrotation
			JOINT neck
			{
				OFFSET 0.000000 18.287994 -0.487680
				CHANNELS 3 Zrotation Xrotation Yrotation
				JOINT head
				{
					OFFSET 0.000000 5.608322 0.000000
					CHANNELS 3 Zrotation Xrotation Yrotation
					End Site
					{
						OFFSET 11.948160 -6.339828 -0.975360
					}
				}
			}
			JOINT lCollar
			{
				OFFSET 6.096000 11.948166 -1.463040
				CHANNELS 3 Zrotation Xrotation Yrotation
				JOINT lShldr
				{
					OFFSET 5.852160 0.000000 0.000000
					CHANNELS 3 Zrotation Xrotation Yrotation
					JOINT lForeArm
					{
						OFFSET 18.044161 0.000000 0.000000
						CHANNELS 3 Zrotation Xrotation Yrotation
						JOINT lHand
						{
							OFFSET 15.118080 0.000000 0.000000
							CHANNELS 3 Zrotation Xrotation Yrotation
							End Site
							{
								OFFSET -11.948160 -6.339828 -0.975360
							}
						}
					}
				}
			}
			JOINT rCollar
			{
				OFFSET -6.339839 11.948166 -1.463040
				CHANNELS 3 Zrotation Xrotation Yrotation
				JOINT rShldr
				{
					OFFSET -5.608321 0.000000 0.000000
					CHANNELS 3 Zrotation Xrotation Yrotation
					JOINT rForeArm
					{
						OFFSET -18.287998 0.000000 0.000000
						CHANNELS 3 Zrotation Xrotation Yrotation
						JOINT rHand
						{
							OFFSET -14.874243 0.000000 0.000000
							CHANNELS 3 Zrotation Xrotation Yrotation
							End Site
							{
								OFFSET 5.852160 -33.649918 2.438400
							}
						}
					}
				}
			}
		}
	}
	JOINT lThigh
	{
		OFFSET 9.509760 -2.926079 2.438400
		CHANNELS 3 Zrotation Xrotation Yrotation
		JOINT lShin
		{
			OFFSET -3.657600 -35.844475 0.000000
			CHANNELS 3 Zrotation Xrotation Yrotation
			JOINT lFoot
			{
				OFFSET 0.000000 -34.381443 -2.194560
				CHANNELS 3 Zrotation Xrotation Yrotation
				End Site
				{
					OFFSET -5.852160 -33.649918 2.438400
				}
			}
		}
	}
	JOINT rThigh
	{
		OFFSET -9.509760 -2.926079 2.438400
		CHANNELS 3 Zrotation Xrotation Yrotation
		JOINT rShin
		{
			OFFSET 3.657600 -35.844475 0.000000
			CHANNELS 3 Zrotation Xrotation Yrotation
			JOINT rFoot
			{
				OFFSET 0.000000 -34.381443 -2.194560
				CHANNELS 3 Zrotation Xrotation Yrotation
				End Site
				{
					OFFSET 0.000000 -4.389120 8.290560
				}
			}
		}
	}
}
MOTION
Frames:	17
Frame Time:	0.05
0.000000 0.000000 0.000000 0.000000 0.060000 0.000000 3.930337 7.777866 -0.880332 1.948723 6.293219 -3.383257 0.000000 0.060000 0.000000 0.000000 0.060000 0.000000 -17.050819 13.827785 -28.619812 5.032503 2.413975 -15.068669 -20.233448 0.642948 -82.345169 -6.999999 0.060000 0.000000 26.387768 14.880212 26.609882 20.605604 6.992578 25.941944 5.235034 2.911590 61.480331 6.999999 -39.958115 -0.000000 5.899373 -11.575969 1.508036 -2.369795 27.257195 1.001180 5.480283 -13.999008 0.242448 -5.993333 -11.473527 -1.764976 3.375249 27.423714 -1.447668 -5.771553 -14.110755 0.619660 
-0.531464 -1.351517 1.082135 0.000000 0.000000 0.000000 3.930337 7.717866 -0.880332 1.948723 6.233219 -3.383257 0.000000 0.000000 0.000000 0.000000 0.000000 0.000000 -17.050819 13.767784 -28.619812 5.032503 2.353975 -15.068669 -20.233448 0.582948 -82.345169 -6.999999 0.000000 0.000000 26.387768 14.820211 26.609882 20.605604 6.932578 25.941944 5.235034 2.851590 61.480331 6.999999 -40.018116 -0.000000 5.899373 -11.635969 1.508036 -2.369795 27.197195 1.001180 5.480283 -14.059009 0.242448 -5.993333 -11.533527 -1.764976 3.375249 27.363714 -1.447668 -5.771553 -14.170755 0.619660 
-0.527351 -1.351060 1.082135 0.000000 0.000000 0.451324 3.926501 7.666242 -0.876568 1.948723 6.233219 -2.080589 0.000000 0.000000 0.000000 0.000000 0.000000 0.000000 -16.786900 13.135049 -27.753969 5.401493 1.256218 -12.799404 -20.053482 2.931608 -88.281860 -6.176562 -0.564710 0.655806 26.189833 14.317603 26.479382 20.290615 6.682075 25.266853 5.127456 2.400483 60.555515 4.614016 -42.062767 -2.776048 5.905004 -11.727354 1.524055 -2.377514 27.273901 1.007989 5.493598 -14.098886 -0.128992 -5.984890 -11.490392 -1.757579 3.391602 27.379410 -1.456917 -5.786562 -14.188590 0.255683 
-0.516887 -1.349898 1.082135 0.000000 0.000000 1.599569 3.916759 7.534896 -0.867023 1.948723 6.233218 1.233625 0.000000 0.000000 0.000000 0.000000 0.000000 0.000000 -16.118439 11.689884 -25.574883 6.543908 -1.314005 -7.166177 -18.559181 8.376384 -102.638565 -3.905988 -2.076425 2.414834 25.649876 12.974965 26.129080 19.406700 5.988804 23.491816 4.788400 1.276198 58.285278 -2.210408 -46.598206 -10.178690 5.920191 -11.972257 1.567075 -2.398275 27.479469 1.026352 5.528137 -14.206568 -1.124643 -5.962293 -11.374778 -1.737817 3.435449 27.421471 -1.481756 -5.825689 -14.235577 -0.719552 
-0.502884 -1.348343 1.082135 0.000000 0.000000 3.136151 3.903764 7.359125 -0.854320 1.948723 6.233218 5.668701 0.000000 0.000000 0.000000 0.000000 0.000000 0.000000 -15.258108 10.103024 -22.709627 8.348761 -4.146163 0.121424 -14.816422 14.125024 -120.465111 -0.454032 -4.253485 4.971378 24.843054 11.043590 25.619984 18.029209 4.934981 20.994598 4.199738 -0.171568 55.422100 -12.684806 -51.107307 -20.727421 5.942418 -12.326795 1.629593 -2.428524 27.777065 1.053234 5.575128 -14.364516 -2.566628 -5.929654 -11.207377 -1.709370 3.498993 27.482325 -1.517846 -5.879449 -14.301556 -2.130857 
-0.488154 -1.346707 1.082135 0.000000 0.000000 4.752479 3.890144 7.174225 -0.841045 1.948723 6.233219 10.333954 0.000000 0.000000 0.000000 0.000000 0.000000 0.000000 -14.537486 8.955506 -19.804054 9.930375 -5.874721 7.379648 -10.072822 17.853607 -136.351868 3.891586 -6.800604 8.031084 23.847620 8.773561 25.012177 16.246256 3.619274 18.148899 3.430190 -1.618037 52.719543 -23.468632 -53.801464 -31.083693 5.969144 -12.747092 1.704081 -2.464689 28.129866 1.085569 5.626096 -14.554804 -4.277045 -5.891072 -11.008889 -1.675898 3.574424 27.554430 -1.560832 -5.938644 -14.376747 -3.803072 
-0.475510 -1.345303 1.082135 0.000000 0.000000 6.139966 3.878495 7.015500 -0.829720 1.948723 6.233219 14.338698 0.000000 0.000000 0.000000 0.000000 0.000000 0.000000 -14.407984 8.701375 -17.534943 9.561892 -5.268210 12.830327 -7.412493 19.106873 -143.875381 8.761720 -9.417871 11.302465 22.754534 6.407805 24.365917 14.190935 2.169863 15.318948 2.666234 -2.797669 50.943390 -28.468796 -54.563374 -35.775688 5.997711 -13.189282 1.782893 -2.503098 28.501045 1.120138 5.673999 -14.758409 -6.077772 -5.850610 -10.800009 -1.640973 3.653904 27.630243 -1.606295 -5.995452 -14.452477 -5.561306 
-0.462959 -1.343909 1.082135 0.000000 0.000000 7.517206 3.866968 6.857942 -0.818542 1.948723 6.233219 18.313860 0.000000 0.000000 0.000000 0.000000 0.000000 0.000000 -15.436170 9.769164 -15.732060 3.389297 -0.374562 16.906931 -9.449718 18.138540 -137.375015 13.674857 -11.822209 14.478317 21.672810 4.178051 23.743628 12.058283 0.740841 12.859685 1.997697 -3.817668 51.415253 -27.181473 -54.393055 -34.573425 6.025288 -13.609509 1.858220 -2.539952 28.853804 1.153521 5.713916 -14.954971 -7.790302 -5.812280 -10.601456 -1.608058 3.729550 27.702250 -1.649726 -6.044080 -14.521389 -7.231109 
-0.449369 -1.342400 1.082135 0.000000 0.000000 9.008389 3.854530 6.687345 -0.806512 1.948723 6.233219 22.617901 0.000000 0.000000 0.000000 0.000000 0.000000 0.000000 -17.441189 11.741986 -14.104472 -7.907113 7.576653 20.669268 -14.019917 14.821719 -121.138908 18.035328 -13.769912 17.218758 20.730455 2.303406 23.211573 10.103756 -0.500240 11.121296 1.412403 -4.888666 53.351749 -23.751684 -53.852001 -31.350937 6.048879 -13.963933 1.922083 -2.571307 29.151320 1.182082 5.743217 -15.122954 -9.235667 -5.780042 -10.433959 -1.580505 3.793439 27.762943 -1.686528 -6.080925 -14.577318 -8.638549 
-0.438844 -1.341232 1.082135 0.000000 0.000000 10.163332 3.844926 6.555211 -0.797246 1.948723 6.233219 25.951445 0.000000 0.000000 0.000000 0.000000 0.000000 0.000000 -19.657778 13.851010 -13.148323 -18.333918 15.235511 23.027714 -17.805798 9.695665 -103.298447 21.162878 -15.064411 19.148914 20.070316 0.992575 22.839977 8.621630 -1.384637 10.454333 0.874944 -5.862037 54.368145 -18.906240 -52.853603 -26.746452 6.065351 -14.208726 1.966370 -2.593112 29.356819 1.202030 5.761071 -15.240092 -10.234512 -5.757823 -10.318253 -1.561586 3.837612 27.804842 -1.712038 -6.104100 -14.614831 -9.610142 
-0.435486 -1.340859 1.082135 0.000000 0.000000 10.531850 3.841867 6.513048 -0.794298 1.948723 6.233219 27.015106 0.000000 0.000000 0.000000 0.000000 0.000000 0.000000 -21.180561 15.462255 -13.347982 -20.554781 19.806419 22.029888 -19.424366 5.475402 -90.905479 22.354044 -15.535657 19.877443 19.840296 0.450666 22.700661 7.903308 -1.749225 11.211760 0.185702 -6.489655 52.069653 -13.411139 -51.341427 -21.437407 6.071536 -14.300063 1.982933 -2.601279 29.433491 1.209518 5.767226 -15.284025 -10.607324 -5.749543 -10.275076 -1.554550 3.854104 27.820473 -1.721575 -6.112265 -14.628602 -9.972555 
-0.445905 -1.342016 1.082135 0.000000 0.000000 9.388464 3.825018 6.574918 -0.804517 1.926466 6.192122 23.674343 0.000000 0.000000 0.000000 0.000000 0.000000 0.000000 -21.410410 16.519358 -15.980384 -3.310804 18.520250 12.577965 -19.775105 4.319825 -87.352852 19.797571 -14.509593 18.309549 20.369286 1.175727 22.942074 8.333637 -1.296719 14.678763 -0.695307 -6.407557 44.729988 -7.958144 -49.357735 -16.048685 6.058204 -14.102772 1.947183 -2.583659 29.267874 1.193374 5.753585 -15.189281 -9.802126 -5.767435 -10.368335 -1.569764 3.818488 27.786707 -1.700987 -6.094300 -14.598703 -9.189658 
-0.466635 -1.344318 1.082135 0.000000 0.000000 7.113766 3.817581 6.766226 -0.823705 1.904213 6.151023 17.068205 0.000000 0.000000 0.000000 0.000000 0.000000 0.000000 -20.784731 17.227610 -20.368145 22.708961 12.273277 -1.783021 -19.802216 4.723400 -88.357338 13.674852 -11.822208 14.478317 21.635784 3.189812 23.549929 9.666332 -0.086141 21.041924 -1.964110 -6.051588 33.852440 -3.061403 -47.058285 -11.063824 6.025288 -13.609509 1.858220 -2.539952 28.853800 1.153520 5.713916 -14.954971 -7.790301 -5.812279 -10.601456 -1.608058 3.729550 27.702250 -1.649726 -6.044081 -14.521389 -7.231108 
-0.486658 -1.346541 1.082135 0.000000 0.000000 4.916679 3.888764 7.155441 -0.839701 1.948723 6.233219 10.807889 0.000000 0.000000 0.000000 0.000000 0.000000 0.000000 -19.953848 17.345480 -24.069134 36.591934 6.595190 -12.172869 -19.860680 4.886950 -88.810944 6.288382 -8.118853 9.658906 23.253548 5.988358 24.351999 11.226975 1.443902 29.019566 -3.233472 -5.368026 21.885042 0.976079 -44.685528 -6.799391 5.983370 -12.968192 1.743431 -2.483847 28.315462 1.102783 5.650793 -14.656182 -5.177267 -5.870825 -10.904451 -1.658398 3.614149 27.592346 -1.583534 -5.967762 -14.415037 -4.682352 
-0.505632 -1.348648 1.082135 0.000000 0.000000 2.834555 4.132174 7.980127 -0.853931 2.138415 6.583042 5.142404 0.000000 0.000000 0.000000 0.000000 0.000000 0.000000 -18.819233 16.364599 -26.593231 30.532284 3.787648 -16.203747 -20.131807 3.727520 -87.364296 -0.454035 -4.253483 4.971376 24.871767 9.037050 25.192636 12.561627 2.847547 37.333664 -4.195811 -4.535573 11.259345 4.022297 -42.526566 -3.445523 5.942418 -12.326795 1.629593 -2.428524 27.777063 1.053234 5.575128 -14.364513 -2.566626 -5.929654 -11.207378 -1.709370 3.498993 27.482325 -1.517846 -5.879449 -14.301557 -2.130857 
-0.523900 -1.350677 1.082135 0.000000 0.000000 0.830040 4.457104 9.001658 -0.876688 2.395502 7.055874 -0.181507 0.000000 0.000000 0.000000 0.000000 0.000000 0.000000 -17.589157 14.721268 -28.436501 15.610965 2.174544 -16.946089 -20.196699 2.159436 -85.447639 -5.205178 -1.219480 1.416792 26.196316 11.757922 25.937233 13.515715 3.833047 44.681335 -4.716486 -3.896987 4.377944 6.039423 -40.877060 -1.133738 5.911561 -11.833357 1.542659 -2.386487 27.362879 1.015916 5.508753 -14.145350 -0.559910 -5.975104 -11.440351 -1.749013 3.410576 27.397617 -1.467659 -5.803695 -14.209070 -0.166474 
-0.531464 -1.351517 1.082135 0.000000 0.000000 0.000000 4.651927 9.575771 -0.892319 2.551488 7.342002 -2.299772 0.000000 0.000000 0.000000 0.000000 0.000000 0.000000 -17.050819 13.767784 -28.619812 5.032503 2.353975 -15.068669 -20.233448 0.582948 -82.345169 -6.999999 0.000000 0.000000 26.982010 13.538413 26.464626 14.134284 4.375428 49.733288 -4.768292 -3.811285 3.632133 6.999999 -40.018116 -0.000000 5.899373 -11.635969 1.508036 -2.369795 27.197195 1.001180 5.480283 -14.059009 0.242448 -5.993333 -11.533527 -1.764976 3.375249 27.363714 -1.447668 -5.771553 -14.170755 0.619660 
